<?xml version="1.0" encoding="utf-8"?>
<!-- Generator: Adobe Illustrator 22.1.0, SVG Export Plug-In . SVG Version: 6.00 Build 0)  -->
<svg version="1.1" id="Ebene_1" xmlns="http://www.w3.org/2000/svg" xmlns:xlink="http://www.w3.org/1999/xlink" x="0px" y="0px"
	 viewBox="0 0 425.2 425.2" style="enable-background:new 0 0 425.2 425.2;" xml:space="preserve">
<style type="text/css">
	.st0{fill:#ECECEC;}
	.st1{fill:none;stroke:#6B6A69;stroke-width:0.25;stroke-linecap:round;stroke-linejoin:round;}
	.st2{fill:none;stroke:#5D5C5B;stroke-width:0.5;stroke-linecap:round;stroke-linejoin:round;}
	.st3{fill:#5D5C5B;}
	.st4{fill:none;stroke:#6B6A69;stroke-width:0.5;}
	.st5{fill:#6B6A69;}
	.st6{fill:#1D1D1B;}
	.st7{fill:none;stroke:#6F6F6E;stroke-width:0.25;stroke-linecap:round;stroke-linejoin:round;}
	.st8{fill:none;stroke:#6F6F6E;stroke-width:0.5;}
	.st9{fill:#C20D0E;stroke:#6F6F6E;stroke-miterlimit:10;}
	.st10{fill:none;}
	.st11{enable-background:new    ;}
	.st12{font-family:'RobotoMono-Regular';}
	.st13{font-size:12px;}
	.st14{letter-spacing:14;}
	.st15{letter-spacing:28;}
	.st16{fill:none;stroke:#575756;stroke-width:0.5;stroke-linecap:round;stroke-linejoin:round;}
	.st17{fill:#760F00;stroke:#575756;stroke-miterlimit:10;}
</style>
<g id="Ebene_3">
	<rect y="0" class="st0" width="425.2" height="425.2"/>
</g>
<g id="Ebene_1_1_">
	<g>
		<g>
			<polyline class="st1" points="202,241.8 193.9,237.2 167,221.9 158.9,217.3 			"/>
			<g>
				<g>
					<polyline class="st2" points="213.8,251.3 192.6,239.3 165.8,224 144.7,212 					"/>
					<g>
						<path class="st3" d="M214.1,250.6c0.4,0.2,0.5,0.7,0.3,1c-0.2,0.4-0.7,0.5-1,0.3c-0.4-0.2-0.5-0.7-0.3-1
							S213.7,250.4,214.1,250.6z"/>
					</g>
					<g>
						<path class="st3" d="M145.1,211.4c-0.4-0.2-0.8-0.1-1,0.3c-0.2,0.4-0.1,0.8,0.3,1c0.4,0.2,0.8,0.1,1-0.3
							C145.6,212,145.4,211.6,145.1,211.4z"/>
					</g>
				</g>
			</g>
			<g>
				<g>
					<path class="st4" d="M209.1,244.5l-0.6,0.2c-9.6,3-3.4,21.7-2.3,13.4c1-7.5-6.7-12-6.7-12l-8.1-4.6l-26.9-15.3l-8.1-4.6
						c0,0-7.8-4.3-13.7,0.4c-6.6,5.2,12.7,1,10.3-8.8l-0.1-0.6"/>
					<g>
						<path class="st5" d="M211.4,243.8c-1.2-0.1-2.8-0.3-3.8-0.8l1.2,1.6l-0.1,2C209.3,245.6,210.4,244.5,211.4,243.8z"/>
					</g>
					<g>
						<path class="st5" d="M152.4,210.2c0.7,1,1.7,2.2,2.6,2.9l-2-0.2l-1.7,1.1C151.9,212.9,152.2,211.4,152.4,210.2z"/>
					</g>
				</g>
			</g>
		</g>
	</g>
	<g>
		<g>
			<polyline class="st1" points="266.1,233.3 257.2,235.9 235.1,242.1 226.2,244.7 			"/>
			<g>
				<g>
					<polyline class="st2" points="281.2,231.5 257.8,238.2 235.8,244.5 212.5,251.2 					"/>
					<g>
						<path class="st3" d="M281,230.8c0.4-0.1,0.8,0.1,0.9,0.5s-0.1,0.8-0.5,0.9c-0.4,0.1-0.8-0.1-0.9-0.5S280.6,230.9,281,230.8z"
							/>
					</g>
					<g>
						<path class="st3" d="M212.3,250.4c-0.4,0.1-0.6,0.5-0.5,0.9s0.5,0.6,0.9,0.5s0.6-0.5,0.5-0.9S212.7,250.3,212.3,250.4z"/>
					</g>
				</g>
			</g>
			<g>
				<g>
					<path class="st4" d="M273,230.1l-0.3,0.5c-4.6,8.9,13.2,17.6,8,11c-4.7-6-13.2-3.6-13.2-3.6l-9,2.6l-22,6.3l-9,2.6
						c0,0-8.5,2.5-9.3,10c-0.9,8.4,9.6-8.3,1-13.5l-0.5-0.3"/>
					<g>
						<path class="st5" d="M274.1,228c-0.9,0.8-2.2,1.7-3.3,2.2l2,0.3l1.4,1.5C274,230.7,274,229.2,274.1,228z"/>
					</g>
					<g>
						<path class="st5" d="M216.5,244.4c1.2,0.2,2.8,0.3,3.9,0.1l-1.6,1.3l-0.4,2C218.1,246.7,217.3,245.3,216.5,244.4z"/>
					</g>
				</g>
			</g>
		</g>
	</g>
	<g>
		<g>
			<polyline class="st1" points="212.3,237.9 208.9,229.2 188,176.9 184.5,168.3 			"/>
			<g>
				<g>
					<polyline class="st2" points="215.6,252.7 206.6,230.1 185.7,177.8 176.7,155.3 					"/>
					<g>
						<path class="st3" d="M216.3,252.4c0.2,0.4,0,0.8-0.4,1s-0.8,0-1-0.4s0-0.8,0.4-1S216.1,252,216.3,252.4z"/>
					</g>
					<g>
						<path class="st3" d="M177.4,155c-0.2-0.4-0.6-0.6-1-0.4c-0.4,0.2-0.6,0.6-0.4,1c0.2,0.4,0.6,0.6,1,0.4
							C177.4,155.9,177.6,155.4,177.4,155z"/>
					</g>
				</g>
			</g>
			<g>
				<g>
					<path class="st4" d="M216.2,244.4l-0.6-0.2c-9.4-3.6-16.2,14.9-10.1,9c5.5-5.3,2.2-13.5,2.2-13.5l-3.5-8.7l-20.9-52.3l-3.5-8.7
						c0,0-3.4-8.2-10.9-8.3c-8.4-0.1,9.3,8.7,13.5-0.4l0.3-0.5"/>
					<g>
						<path class="st5" d="M218.4,245.3c-0.9-0.8-2-2-2.5-3v2l-1.3,1.5C215.7,245.5,217.2,245.3,218.4,245.3z"/>
					</g>
					<g>
						<path class="st5" d="M183.9,158.7c-0.1,1.2-0.1,2.8,0.3,3.9l-1.4-1.4l-2-0.2C181.7,160.5,183,159.5,183.9,158.7z"/>
					</g>
				</g>
			</g>
		</g>
	</g>
	<g>
		<g>
			<polyline class="st1" points="224.4,242.7 228.2,234.2 247.8,190.1 251.6,181.6 			"/>
			<g>
				<g>
					<polyline class="st2" points="216.1,255.4 226,233.2 245.6,189.1 255.5,166.9 					"/>
					<g>
						<path class="st3" d="M216.8,255.6c-0.2,0.4-0.6,0.5-1,0.4c-0.4-0.2-0.6-0.6-0.4-1c0.2-0.4,0.6-0.6,1-0.4
							S217,255.2,216.8,255.6z"/>
					</g>
					<g>
						<path class="st3" d="M256.1,167.3c0.2-0.4,0-0.8-0.4-1s-0.8,0-1,0.4s0,0.8,0.4,1C255.5,167.8,256,167.6,256.1,167.3z"/>
					</g>
				</g>
			</g>
			<g>
				<g>
					<path class="st4" d="M222.4,250l-0.2-0.6c-3.9-9.2-22-1.2-13.5-0.9c7.6,0.2,11.3-7.8,11.3-7.8l3.8-8.5l19.6-44.1l3.8-8.5
						c0,0,3.6-8.1-1.7-13.6c-5.9-6.1,0.2,12.7,9.7,9.4l0.6-0.2"/>
					<g>
						<path class="st5" d="M223.4,252.2c-0.1-1.2,0.1-2.8,0.4-3.9l-1.5,1.4l-2,0.1C221.3,250.4,222.5,251.4,223.4,252.2z"/>
					</g>
					<g>
						<path class="st5" d="M258,174.4c-0.9,0.8-2,1.9-2.6,2.9v-2l-1.3-1.6C255.2,174.2,256.8,174.4,258,174.4z"/>
					</g>
				</g>
			</g>
		</g>
	</g>
</g>
<g id="Ebene_4">
	<circle class="st6" cx="44.1" cy="328.2" r="4.3"/>
	<polyline class="st7" points="55.6,385 46.3,385 41.9,385 32.6,385 	"/>
	<g>
		<path class="st8" d="M63.1,383.8l-0.4,0.4c-6.9,7.3,7.8,20.6,4.6,12.7c-2.9-7-11.7-7.1-11.7-7.1h-9.3h-4.4h-9.3
			c0,0-8.9,0.1-11.7,7.1c-3.2,7.8,11.5-5.4,4.6-12.7l-0.4-0.4"/>
		<g>
			<path class="st9" d="M64.8,382.1c-1.1,0.5-2.6,1.1-3.7,1.2l1.9,0.8l0.9,1.8C63.9,384.7,64.3,383.2,64.8,382.1z"/>
		</g>
		<g>
			<path class="st9" d="M23.4,382.1c1.1,0.5,2.6,1.1,3.7,1.2l-1.9,0.8l-0.9,1.8C24.3,384.7,23.9,383.2,23.4,382.1z"/>
		</g>
	</g>
	<rect x="88" y="322.7" class="st10" width="99.6" height="10.9"/>
	<text transform="matrix(1 0 0 1 87.9642 331.7351)" class="st11"><tspan x="0" y="0" class="st6 st12 st13">Actors:</tspan><tspan x="50.4" y="0" class="st6 st12 st13 st14">	</tspan><tspan x="72" y="0" class="st6 st12 st13 st15">	</tspan><tspan x="108" y="0" class="st6 st12 st13">tree, human, ?, ...</tspan></text>
	<rect x="88" y="351.8" class="st10" width="99.6" height="10.9"/>
	<text transform="matrix(1 0 0 1 87.9642 360.7968)" class="st11"><tspan x="0" y="0" class="st6 st12 st13">Technique:</tspan><tspan x="72" y="0" class="st6 st12 st13 st15">	</tspan><tspan x="108" y="0" class="st6 st12 st13">utilized ultrasound</tspan></text>
	<rect x="88" y="380.9" class="st10" width="99.6" height="10.9"/>
	<text transform="matrix(1 0 0 1 87.9642 389.8585)" class="st11"><tspan x="0" y="0" class="st6 st12 st13">Action:</tspan><tspan x="50.4" y="0" class="st6 st12 st13 st14">	</tspan><tspan x="72" y="0" class="st6 st12 st13 st15">	</tspan><tspan x="108" y="0" class="st6 st12 st13">navigating a space,</tspan><tspan x="0" y="14.4" class="st6 st12 st13 st15">			</tspan><tspan x="108" y="14.4" class="st6 st12 st13">detecting other actors</tspan></text>
	<g>
		<polyline class="st16" points="70.6,357.3 46.3,357.3 41.9,357.3 17.6,357.3 		"/>
		<g>
			<path class="st17" d="M70.5,356.5c0.4,0,0.8,0.3,0.8,0.8c0,0.4-0.3,0.8-0.8,0.8c-0.4,0-0.8-0.3-0.8-0.8
				C69.8,356.9,70.1,356.5,70.5,356.5z"/>
		</g>
		<g>
			<path class="st17" d="M17.6,356.5c-0.4,0-0.8,0.3-0.8,0.8c0,0.4,0.3,0.8,0.8,0.8c0.4,0,0.8-0.3,0.8-0.8
				C18.4,356.9,18.1,356.5,17.6,356.5z"/>
		</g>
	</g>
	<rect x="16.9" y="23" class="st10" width="460.9" height="29.8"/>
	<text transform="matrix(1 0 0 1 17.1264 32.0317)" class="st6 st12 st13">Ultrasonic Technique</text>
	<text transform="matrix(1 0 0 1 16.9264 46.4317)" class="st6 st12 st13">of a Tree</text>
</g>
<g id="Ebene_2_1_">
	<circle class="st6" cx="212.7" cy="254.6" r="4.3"/>
	<circle class="st6" cx="212.7" cy="128.7" r="4.3"/>
	<circle class="st6" cx="282.8" cy="234.6" r="4.3"/>
	<circle class="st6" cx="142.4" cy="214.6" r="4.3"/>
	<g>
		<g>
			<polyline class="st1" points="206.8,144.3 206.8,153.7 206.8,229.6 206.8,239 			"/>
			<g>
				<g>
					<polyline class="st2" points="209.3,129.4 209.3,153.7 209.3,229.6 209.3,253.9 					"/>
					<g>
						<path class="st3" d="M208.5,129.4c0-0.4,0.3-0.8,0.8-0.8s0.8,0.3,0.8,0.8c0,0.4-0.3,0.8-0.8,0.8S208.5,129.8,208.5,129.4z"/>
					</g>
					<g>
						<path class="st3" d="M208.5,253.9c0,0.4,0.3,0.8,0.8,0.8s0.8-0.3,0.8-0.8c0-0.4-0.3-0.8-0.8-0.8S208.5,253.5,208.5,253.9z"/>
					</g>
				</g>
			</g>
			<g>
				<g>
					<path class="st4" d="M205.7,136.8l0.4,0.4c7.3,6.9,20.6-7.8,12.7-4.6c-7,2.9-7.1,11.7-7.1,11.7v9.3v76v9.3
						c0,0,0.1,8.9,7.1,11.7c7.8,3.2-5.4-11.5-12.7-4.6l-0.4,0.4"/>
					<g>
						<path class="st5" d="M203.9,135.2c0.5,1.1,1.1,2.6,1.2,3.7l0.8-1.9l1.8-0.9C206.5,136.1,205,135.6,203.9,135.2z"/>
					</g>
					<g>
						<path class="st5" d="M203.9,248.1c0.5-1.1,1.1-2.6,1.2-3.7l0.8,1.9l1.8,0.9C206.5,247.2,205,247.6,203.9,248.1z"/>
					</g>
				</g>
			</g>
		</g>
	</g>
	
		<ellipse transform="matrix(0.1602 -0.9871 0.9871 0.1602 49.3678 387.8237)" class="st6" cx="252.6" cy="164.9" rx="4.3" ry="4.3"/>
	<circle class="st6" cx="173.3" cy="155.9" r="4.3"/>
</g>
</svg>
