<?xml version="1.0" encoding="utf-8"?>
<!-- Generator: Adobe Illustrator 22.1.0, SVG Export Plug-In . SVG Version: 6.00 Build 0)  -->
<svg version="1.1" id="Ebene_1" xmlns="http://www.w3.org/2000/svg" xmlns:xlink="http://www.w3.org/1999/xlink" x="0px" y="0px"
	 viewBox="0 0 425.2 425.2" style="enable-background:new 0 0 425.2 425.2;" xml:space="preserve">
<style type="text/css">
	.st0{fill:#ECECEC;}
	.st1{fill:none;stroke:#6B6A69;stroke-width:0.25;stroke-linecap:round;stroke-linejoin:round;}
	.st2{fill:none;stroke:#5D5C5B;stroke-width:0.5;stroke-linecap:round;stroke-linejoin:round;}
	.st3{fill:#5D5C5B;}
	.st4{fill:none;stroke:#6B6A69;stroke-width:0.5;}
	.st5{fill:#6B6A69;}
	.st6{fill:#1D1D1B;}
	.st7{fill:none;stroke:#6F6F6E;stroke-width:0.25;stroke-linecap:round;stroke-linejoin:round;}
	.st8{fill:none;stroke:#6F6F6E;stroke-width:0.5;}
	.st9{fill:#C20D0E;stroke:#6F6F6E;stroke-miterlimit:10;}
	.st10{fill:none;}
	.st11{enable-background:new    ;}
	.st12{font-family:'RobotoMono-Regular';}
	.st13{font-size:12px;}
	.st14{letter-spacing:14;}
	.st15{letter-spacing:28;}
	.st16{fill:none;stroke:#575756;stroke-width:0.5;stroke-linecap:round;stroke-linejoin:round;}
	.st17{fill:#760F00;stroke:#575756;stroke-miterlimit:10;}
</style>
<g id="Ebene_3">
	<rect y="0" class="st0" width="425.2" height="425.2"/>
</g>
<g id="Ebene_1_1_">
	<g>
		<g>
			<polyline class="st1" points="144.4,124.6 138.3,131.7 124.3,148.2 118.3,155.3 			"/>
			<g>
				<g>
					<polyline class="st2" points="155.9,114.8 140.2,133.3 126.2,149.8 110.5,168.3 					"/>
					<g>
						<path class="st3" d="M155.3,114.4c0.3-0.3,0.7-0.4,1.1-0.1c0.3,0.3,0.4,0.7,0.1,1.1c-0.3,0.3-0.7,0.4-1.1,0.1
							C155.1,115.1,155.1,114.7,155.3,114.4z"/>
					</g>
					<g>
						<path class="st3" d="M109.9,167.7c-0.3,0.3-0.2,0.8,0.1,1.1c0.3,0.3,0.8,0.2,1.1-0.1c0.3-0.3,0.2-0.8-0.1-1.1
							C110.6,167.4,110.2,167.4,109.9,167.7z"/>
					</g>
				</g>
			</g>
			<g>
				<g>
					<path class="st4" d="M148.3,118.1l0.1,0.6c1.1,10,20.7,7.4,12.7,4.7c-7.2-2.4-13,4.3-13,4.3l-6.1,7.1l-14,16.5l-6,7.1
						c0,0-5.7,6.8-2.2,13.5c3.9,7.5,3.4-12.2-6.7-11.8h-0.6"/>
					<g>
						<path class="st5" d="M148.1,115.7c-0.3,1.2-0.8,2.7-1.5,3.6l1.8-0.9l2,0.5C149.5,118.1,148.6,116.8,148.1,115.7z"/>
					</g>
					<g>
						<path class="st5" d="M110.1,160.4c1.1-0.5,2.5-1.3,3.3-2.1l-0.6,1.9l0.8,1.9C112.7,161.4,111.3,160.7,110.1,160.4z"/>
					</g>
				</g>
			</g>
		</g>
	</g>
	<g>
		<g>
			<polyline class="st1" points="129.3,171.1 138.1,167.9 204.4,143.5 213.2,140.2 			"/>
			<g>
				<g>
					<polyline class="st2" points="114.4,174 137.2,165.6 203.6,141.2 226.3,132.8 					"/>
					<g>
						<path class="st3" d="M114.7,174.6c-0.4,0.1-0.8-0.1-1-0.4c-0.1-0.4,0.1-0.8,0.4-1c0.4-0.1,0.8,0.1,1,0.4
							C115.3,174.1,115.1,174.5,114.7,174.6z"/>
					</g>
					<g>
						<path class="st3" d="M226.6,133.5c0.4-0.1,0.6-0.6,0.4-1s-0.6-0.6-1-0.4c-0.4,0.1-0.6,0.6-0.4,1
							C225.8,133.4,226.2,133.6,226.6,133.5z"/>
					</g>
				</g>
			</g>
			<g>
				<g>
					<path class="st4" d="M122.7,174.8l0.2-0.6c3.9-9.3-14.4-16.6-8.8-10.3c5.1,5.6,13.5,2.6,13.5,2.6l8.8-3.2l66.3-24.4l8.8-3.2
						c0,0,8.3-3.1,8.6-10.7c0.3-8.4-8.9,9,0,13.5l0.5,0.3"/>
					<g>
						<path class="st5" d="M121.7,177c0.8-0.9,2-1.9,3.1-2.4l-2-0.1l-1.5-1.4C121.7,174.2,121.8,175.8,121.7,177z"/>
					</g>
					<g>
						<path class="st5" d="M222.8,139.8c-1.2-0.1-2.8-0.1-3.9,0.2l1.5-1.4l0.2-2C221,137.7,221.9,139,222.8,139.8z"/>
					</g>
				</g>
			</g>
		</g>
	</g>
	<g>
		<g>
			<polyline class="st1" points="115.2,187.5 119.8,195.6 134.5,221.7 139.1,229.8 			"/>
			<g>
				<g>
					<polyline class="st2" points="110,173.3 121.9,194.4 136.6,220.5 148.6,241.6 					"/>
					<g>
						<path class="st3" d="M109.3,173.7c-0.2-0.4-0.1-0.8,0.3-1s0.8-0.1,1,0.3c0.2,0.4,0.1,0.8-0.3,1
							C110,174.2,109.5,174.1,109.3,173.7z"/>
					</g>
					<g>
						<path class="st3" d="M147.9,242c0.2,0.4,0.7,0.5,1,0.3c0.4-0.2,0.5-0.7,0.3-1c-0.2-0.4-0.7-0.5-1-0.3S147.7,241.6,147.9,242z"
							/>
					</g>
				</g>
			</g>
			<g>
				<g>
					<path class="st4" d="M110.5,181.6l0.6,0.1c9.8,2.4,14-16.9,8.8-10.3c-4.7,5.9-0.4,13.7-0.4,13.7l4.6,8.1l14.7,26l4.6,8.1
						c0,0,4.4,7.7,12,6.7c8.4-1.1-10.3-7.4-13.4,2.2l-0.2,0.6"/>
					<g>
						<path class="st5" d="M108.1,181c1,0.7,2.2,1.7,2.9,2.7l-0.2-2l1.1-1.7C110.9,180.5,109.3,180.9,108.1,181z"/>
					</g>
					<g>
						<path class="st5" d="M141,239.2c-0.1-1.2-0.3-2.8-0.8-3.8l1.6,1.2l2-0.1C142.9,237.1,141.8,238.3,141,239.2z"/>
					</g>
				</g>
			</g>
		</g>
	</g>
	<g>
		<g>
			<line class="st1" x1="126" y1="181" x2="224.1" y2="209.4"/>
			<g>
				<g>
					<polyline class="st2" points="112.3,174.5 135.6,181.2 215.9,204.5 239.2,211.2 					"/>
					<g>
						<path class="st3" d="M112.1,175.2c-0.4-0.1-0.6-0.5-0.5-0.9s0.5-0.6,0.9-0.5s0.6,0.5,0.5,0.9
							C113,175.1,112.5,175.3,112.1,175.2z"/>
					</g>
					<g>
						<path class="st3" d="M238.9,211.9c0.4,0.1,0.8-0.1,0.9-0.5s-0.1-0.8-0.5-0.9c-0.4-0.1-0.8,0.1-0.9,0.5
							S238.5,211.8,238.9,211.9z"/>
					</g>
				</g>
			</g>
			<g>
				<g>
					<path class="st4" d="M118.5,180l0.5-0.3c8.6-5.1-1.8-21.9-0.9-13.5c0.8,7.5,9.3,10.1,9.3,10.1l98.1,28.4c0,0,8.6,2.4,13.3-3.5
						c5.2-6.6-12.5,2-8,10.9l0.3,0.5"/>
					<g>
						<path class="st5" d="M116.4,181.3c1.2-0.2,2.8-0.3,3.9-0.1l-1.6-1.3l-0.4-2C118,179,117.1,180.3,116.4,181.3z"/>
					</g>
					<g>
						<path class="st5" d="M232.1,214.8c-0.9-0.8-2.2-1.8-3.2-2.2l2-0.2l1.4-1.5C232,212,232,213.6,232.1,214.8z"/>
					</g>
				</g>
			</g>
		</g>
	</g>
	<g>
		<g>
			<line class="st1" x1="249.1" y1="237.1" x2="129.2" y2="173.2"/>
			<g>
				<g>
					<polyline class="st2" points="261.1,246.2 239.7,234.8 136.2,179.8 114.8,168.3 					"/>
					<g>
						<path class="st3" d="M261.4,245.6c0.4,0.2,0.5,0.7,0.3,1c-0.2,0.4-0.7,0.5-1,0.3c-0.4-0.2-0.5-0.7-0.3-1
							C260.6,245.5,261.1,245.4,261.4,245.6z"/>
					</g>
					<g>
						<path class="st3" d="M115.2,167.7c-0.4-0.2-0.8-0.1-1,0.3c-0.2,0.4-0.1,0.8,0.3,1s0.8,0.1,1-0.3
							C115.7,168.3,115.6,167.9,115.2,167.7z"/>
					</g>
				</g>
			</g>
			<g>
				<g>
					<path class="st4" d="M256.3,239.5l-0.6,0.2c-9.5,3.3-2.7,21.8-1.9,13.4c0.8-7.5-7-11.8-7-11.8l-119.9-63.8
						c0,0-7.9-4.1-13.7,0.7c-6.5,5.4,12.7,0.7,10.1-9l-0.2-0.6"/>
					<g>
						<path class="st5" d="M258.5,238.8c-1.2,0-2.8-0.3-3.9-0.7l1.3,1.6v2C256.5,240.7,257.6,239.5,258.5,238.8z"/>
					</g>
					<g>
						<path class="st5" d="M122.5,166.3c0.7,1,1.8,2.2,2.7,2.8l-2-0.2l-1.7,1.2C122,169.1,122.3,167.5,122.5,166.3z"/>
					</g>
				</g>
			</g>
		</g>
	</g>
</g>
<g id="Ebene_4">
	<circle class="st6" cx="44.1" cy="328.2" r="4.3"/>
	<polyline class="st7" points="55.6,385 46.3,385 41.9,385 32.6,385 	"/>
	<g>
		<path class="st8" d="M63.1,383.8l-0.4,0.4c-6.9,7.3,7.8,20.6,4.6,12.7c-2.9-7-11.7-7.1-11.7-7.1h-9.3h-4.4h-9.3
			c0,0-8.9,0.1-11.7,7.1c-3.2,7.8,11.5-5.4,4.6-12.7l-0.4-0.4"/>
		<g>
			<path class="st9" d="M64.8,382.1c-1.1,0.5-2.6,1.1-3.7,1.2l1.9,0.8l0.9,1.8C63.9,384.7,64.3,383.2,64.8,382.1z"/>
		</g>
		<g>
			<path class="st9" d="M23.4,382.1c1.1,0.5,2.6,1.1,3.7,1.2l-1.9,0.8l-0.9,1.8C24.3,384.7,23.9,383.2,23.4,382.1z"/>
		</g>
	</g>
	<rect x="88" y="322.7" class="st10" width="99.6" height="10.9"/>
	<text transform="matrix(1 0 0 1 87.9642 331.7351)" class="st11"><tspan x="0" y="0" class="st6 st12 st13">Actors:</tspan><tspan x="50.4" y="0" class="st6 st12 st13 st14">	</tspan><tspan x="72" y="0" class="st6 st12 st13 st15">	</tspan><tspan x="108" y="0" class="st6 st12 st13">bat, tree, fence, ...</tspan></text>
	<rect x="88" y="351.8" class="st10" width="99.6" height="10.9"/>
	<text transform="matrix(1 0 0 1 87.9642 360.7968)" class="st11"><tspan x="0" y="0" class="st6 st12 st13">Technique:</tspan><tspan x="72" y="0" class="st6 st12 st13 st15">	</tspan><tspan x="108" y="0" class="st6 st12 st13">utilized ultrasound</tspan></text>
	<rect x="88" y="380.9" class="st10" width="99.6" height="10.9"/>
	<text transform="matrix(1 0 0 1 87.9642 389.8585)" class="st11"><tspan x="0" y="0" class="st6 st12 st13">Action:</tspan><tspan x="50.4" y="0" class="st6 st12 st13 st14">	</tspan><tspan x="72" y="0" class="st6 st12 st13 st15">	</tspan><tspan x="108" y="0" class="st6 st12 st13">navigating a space,</tspan><tspan x="0" y="14.4" class="st6 st12 st13 st15">			</tspan><tspan x="108" y="14.4" class="st6 st12 st13">detecting other actors</tspan></text>
	<g>
		<polyline class="st16" points="70.6,357.3 46.3,357.3 41.9,357.3 17.6,357.3 		"/>
		<g>
			<path class="st17" d="M70.5,356.5c0.4,0,0.8,0.3,0.8,0.8c0,0.4-0.3,0.8-0.8,0.8c-0.4,0-0.8-0.3-0.8-0.8
				C69.8,356.9,70.1,356.5,70.5,356.5z"/>
		</g>
		<g>
			<path class="st17" d="M17.6,356.5c-0.4,0-0.8,0.3-0.8,0.8c0,0.4,0.3,0.8,0.8,0.8c0.4,0,0.8-0.3,0.8-0.8
				C18.4,356.9,18.1,356.5,17.6,356.5z"/>
		</g>
	</g>
	<rect x="16.9" y="23" class="st10" width="460.9" height="29.8"/>
	<text transform="matrix(1 0 0 1 17.1264 32.0317)" class="st6 st12 st13">Ultrasonic Technique</text>
	<text transform="matrix(1 0 0 1 16.9264 46.4317)" class="st6 st12 st13">of a Bat</text>
</g>
<g id="Ebene_2_1_">
	<circle class="st6" cx="112.6" cy="171" r="4.3"/>
	<circle class="st6" cx="159" cy="116.5" r="4.3"/>
	<circle class="st6" cx="240.8" cy="208.1" r="4.3"/>
	<circle class="st6" cx="322.7" cy="155.3" r="4.3"/>
	<circle class="st6" cx="260.2" cy="249.6" r="4.3"/>
	<circle class="st6" cx="151.9" cy="240.6" r="4.3"/>
	<circle class="st6" cx="225.8" cy="129.3" r="4.3"/>
	<g>
		<g>
			<line class="st1" x1="306.7" y1="150.6" x2="127.8" y2="164"/>
			<g>
				<g>
					<polyline class="st2" points="321.8,152 297.6,153.8 137.3,165.8 113,167.6 					"/>
					<g>
						<path class="st3" d="M321.7,151.2c0.4,0,0.8,0.3,0.8,0.7s-0.3,0.8-0.7,0.8c-0.4,0-0.8-0.3-0.8-0.7S321.3,151.3,321.7,151.2z"
							/>
					</g>
					<g>
						<path class="st3" d="M113,166.8c-0.4,0-0.7,0.4-0.7,0.8c0,0.4,0.4,0.7,0.8,0.7s0.7-0.4,0.7-0.8
							C113.8,167.1,113.4,166.8,113,166.8z"/>
					</g>
				</g>
			</g>
			<g>
				<g>
					<path class="st4" d="M314.1,148.9l-0.4,0.5c-6.3,7.8,9.3,19.9,5.6,12.3c-3.4-6.8-12.2-6.2-12.2-6.2l-178.9,13.4
						c0,0-8.9,0.7-11.2,8c-2.6,8,11.1-6.2,3.7-13l-0.4-0.4"/>
					<g>
						<path class="st5" d="M315.6,147c-1,0.6-2.5,1.3-3.6,1.5l1.9,0.7l1.1,1.7C314.9,149.7,315.2,148.2,315.6,147z"/>
					</g>
					<g>
						<path class="st5" d="M118.4,161.8c1.1,0.5,2.6,0.9,3.8,0.9l-1.8,0.9l-0.8,1.9C119.5,164.3,119,162.8,118.4,161.8z"/>
					</g>
				</g>
			</g>
		</g>
	</g>
</g>
</svg>
