<?xml version="1.0" encoding="utf-8"?>
<!-- Generator: Adobe Illustrator 22.1.0, SVG Export Plug-In . SVG Version: 6.00 Build 0)  -->
<svg version="1.1" id="Ebene_1" xmlns="http://www.w3.org/2000/svg" xmlns:xlink="http://www.w3.org/1999/xlink" x="0px" y="0px"
	 viewBox="0 0 425.2 425.2" style="enable-background:new 0 0 425.2 425.2;" xml:space="preserve">
<style type="text/css">
	.st0{fill:#ECECEC;}
	.st1{fill:none;stroke:#6B6A69;stroke-width:0.25;stroke-linecap:round;stroke-linejoin:round;}
	.st2{fill:none;stroke:#5D5C5B;stroke-width:0.5;stroke-linecap:round;stroke-linejoin:round;}
	.st3{fill:#5D5C5B;}
	.st4{fill:none;stroke:#6B6A69;stroke-width:0.5;}
	.st5{fill:#6B6A69;}
	.st6{fill:#1D1D1B;}
	.st7{fill:none;stroke:#6F6F6E;stroke-width:0.25;stroke-linecap:round;stroke-linejoin:round;}
	.st8{fill:none;stroke:#6F6F6E;stroke-width:0.5;}
	.st9{fill:#C20D0E;stroke:#6F6F6E;stroke-miterlimit:10;}
	.st10{fill:none;}
	.st11{enable-background:new    ;}
	.st12{font-family:'RobotoMono-Regular';}
	.st13{font-size:12px;}
	.st14{letter-spacing:14;}
	.st15{letter-spacing:28;}
	.st16{fill:none;stroke:#575756;stroke-width:0.5;stroke-linecap:round;stroke-linejoin:round;}
	.st17{fill:#760F00;stroke:#575756;stroke-miterlimit:10;}
</style>
<g id="Ebene_3">
	<rect y="0" class="st0" width="425.2" height="425.2"/>
</g>
<g id="Ebene_1_1_">
	<g>
		<g>
			<line class="st1" x1="94.1" y1="229.4" x2="320.2" y2="123.2"/>
			<g>
				<g>
					<polyline class="st2" points="79.5,233.6 101.5,223.3 310.7,124.9 332.7,114.6 					"/>
					<g>
						<path class="st3" d="M79.9,234.2c-0.4,0.2-0.8,0-1-0.4s0-0.8,0.4-1s0.8,0,1,0.4C80.4,233.6,80.3,234.1,79.9,234.2z"/>
					</g>
					<g>
						<path class="st3" d="M333,115.3c0.4-0.2,0.5-0.6,0.4-1c-0.2-0.4-0.6-0.5-1-0.4c-0.4,0.2-0.5,0.6-0.4,1
							C332.2,115.3,332.6,115.5,333,115.3z"/>
					</g>
				</g>
			</g>
			<g>
				<g>
					<path class="st4" d="M87.8,233.7l0.2-0.6c3.1-9.6-15.8-15.3-9.6-9.5C83.9,228.7,92,225,92,225l226.1-106.3c0,0,8-3.8,7.6-11.4
						c-0.5-8.4-8.1,9.8,1.2,13.5l0.6,0.2"/>
					<g>
						<path class="st5" d="M87.1,236c0.7-1,1.9-2.1,2.9-2.7l-2,0.1l-1.6-1.2C86.8,233.2,87,234.8,87.1,236z"/>
					</g>
					<g>
						<path class="st5" d="M329.8,121.9c-1.2,0-2.8,0.1-3.9,0.5l1.3-1.5l0.1-2C327.8,119.9,328.9,121.1,329.8,121.9z"/>
					</g>
				</g>
			</g>
		</g>
	</g>
	<g>
		<g>
			<line class="st1" x1="247.5" y1="261.1" x2="94" y2="228.4"/>
			<g>
				<g>
					<polyline class="st2" points="261.6,266.6 237.9,261.5 102.6,232.7 78.8,227.6 					"/>
					<g>
						<path class="st3" d="M261.8,265.9c0.4,0.1,0.7,0.5,0.6,0.9s-0.5,0.7-0.9,0.6s-0.7-0.5-0.6-0.9
							C260.9,266,261.3,265.8,261.8,265.9z"/>
					</g>
					<g>
						<path class="st3" d="M79,226.9c-0.4-0.1-0.8,0.2-0.9,0.6s0.2,0.8,0.6,0.9c0.4,0.1,0.8-0.2,0.9-0.6S79.4,227,79,226.9z"/>
					</g>
				</g>
			</g>
			<g>
				<g>
					<path class="st4" d="M255.1,261.5l-0.5,0.3c-8.2,5.7,3.4,21.7,1.9,13.4c-1.3-7.5-10-9.4-10-9.4L93,233.1c0,0-8.7-1.8-13,4.5
						c-4.7,7,12.4-2.9,7.2-11.5l-0.3-0.5"/>
					<g>
						<path class="st5" d="M257.1,260.1c-1.2,0.3-2.7,0.5-3.9,0.4l1.7,1.2l0.5,2C255.7,262.5,256.4,261.1,257.1,260.1z"/>
					</g>
					<g>
						<path class="st5" d="M85.6,223.6c0.9,0.8,2.3,1.6,3.4,2l-2,0.4l-1.3,1.6C86,226.3,85.9,224.8,85.6,223.6z"/>
					</g>
				</g>
			</g>
		</g>
	</g>
</g>
<g id="Ebene_4">
	<circle class="st6" cx="44.1" cy="328.2" r="4.3"/>
	<polyline class="st7" points="55.6,385 46.3,385 41.9,385 32.6,385 	"/>
	<g>
		<path class="st8" d="M63.1,383.8l-0.4,0.4c-6.9,7.3,7.8,20.6,4.6,12.7c-2.9-7-11.7-7.1-11.7-7.1h-9.3h-4.4h-9.3
			c0,0-8.9,0.1-11.7,7.1c-3.2,7.8,11.5-5.4,4.6-12.7l-0.4-0.4"/>
		<g>
			<path class="st9" d="M64.8,382.1c-1.1,0.5-2.6,1.1-3.7,1.2l1.9,0.8l0.9,1.8C63.9,384.7,64.3,383.2,64.8,382.1z"/>
		</g>
		<g>
			<path class="st9" d="M23.4,382.1c1.1,0.5,2.6,1.1,3.7,1.2l-1.9,0.8l-0.9,1.8C24.3,384.7,23.9,383.2,23.4,382.1z"/>
		</g>
	</g>
	<rect x="88" y="322.7" class="st10" width="99.6" height="10.9"/>
	<text transform="matrix(1 0 0 1 87.9642 331.7351)" class="st11"><tspan x="0" y="0" class="st6 st12 st13">Actors:</tspan><tspan x="50.4" y="0" class="st6 st12 st13 st14">	</tspan><tspan x="72" y="0" class="st6 st12 st13 st15">	</tspan><tspan x="108" y="0" class="st6 st12 st13">submarine, glacier, whale, ...</tspan></text>
	<rect x="88" y="351.8" class="st10" width="99.6" height="10.9"/>
	<text transform="matrix(1 0 0 1 87.9642 360.7968)" class="st11"><tspan x="0" y="0" class="st6 st12 st13">Technique:</tspan><tspan x="72" y="0" class="st6 st12 st13 st15">	</tspan><tspan x="108" y="0" class="st6 st12 st13">utilized ultrasound</tspan></text>
	<rect x="88" y="380.9" class="st10" width="99.6" height="10.9"/>
	<text transform="matrix(1 0 0 1 87.9642 389.8585)" class="st11"><tspan x="0" y="0" class="st6 st12 st13">Action:</tspan><tspan x="50.4" y="0" class="st6 st12 st13 st14">	</tspan><tspan x="72" y="0" class="st6 st12 st13 st15">	</tspan><tspan x="108" y="0" class="st6 st12 st13">navigating a space,</tspan><tspan x="0" y="14.4" class="st6 st12 st13 st15">			</tspan><tspan x="108" y="14.4" class="st6 st12 st13">detecting other actors</tspan></text>
	<g>
		<polyline class="st16" points="70.6,357.3 46.3,357.3 41.9,357.3 17.6,357.3 		"/>
		<g>
			<path class="st17" d="M70.5,356.5c0.4,0,0.8,0.3,0.8,0.8c0,0.4-0.3,0.8-0.8,0.8c-0.4,0-0.8-0.3-0.8-0.8
				C69.8,356.9,70.1,356.5,70.5,356.5z"/>
		</g>
		<g>
			<path class="st17" d="M17.6,356.5c-0.4,0-0.8,0.3-0.8,0.8c0,0.4,0.3,0.8,0.8,0.8c0.4,0,0.8-0.3,0.8-0.8
				C18.4,356.9,18.1,356.5,17.6,356.5z"/>
		</g>
	</g>
	<rect x="16.9" y="23" class="st10" width="460.9" height="29.8"/>
	<text transform="matrix(1 0 0 1 17.1264 32.0317)" class="st6 st12 st13">Ultrasonic Technique</text>
	<text transform="matrix(1 0 0 1 16.9264 46.4317)" class="st6 st12 st13">of a Human-made Submarine</text>
</g>
<g id="Ebene_2_1_">
	<circle class="st6" cx="77.4" cy="230.8" r="4.3"/>
	<circle class="st6" cx="319.5" cy="156.7" r="4.3"/>
	<circle class="st6" cx="261.6" cy="270.1" r="4.3"/>
	<circle class="st6" cx="331.9" cy="111.2" r="4.3"/>
	<g>
		<g>
			<line class="st1" x1="302.8" y1="155.7" x2="90.7" y2="220.6"/>
			<g>
				<g>
					<polyline class="st2" points="317.8,153.6 294.6,160.8 100.3,220.2 77.1,227.3 					"/>
					<g>
						<path class="st3" d="M317.6,152.9c0.4-0.1,0.8,0.1,0.9,0.5s-0.1,0.8-0.5,0.9c-0.4,0.1-0.8-0.1-0.9-0.5
							C317,153.5,317.2,153.1,317.6,152.9z"/>
					</g>
					<g>
						<path class="st3" d="M76.9,226.6c-0.4,0.1-0.6,0.5-0.5,0.9s0.5,0.6,0.9,0.5s0.6-0.5,0.5-0.9C77.8,226.7,77.3,226.5,76.9,226.6
							z"/>
					</g>
				</g>
			</g>
			<g>
				<g>
					<path class="st4" d="M309.7,152.4l-0.3,0.5c-4.4,9,13.5,17.4,8.2,10.8c-4.8-5.9-13.3-3.3-13.3-3.3L92.1,225.3
						c0,0-8.5,2.7-9.2,10.2c-0.7,8.4,9.4-8.5,0.7-13.5l-0.5-0.3"/>
					<g>
						<path class="st5" d="M310.7,150.2c-0.9,0.8-2.1,1.8-3.2,2.2l2,0.2l1.4,1.5C310.6,153,310.6,151.4,310.7,150.2z"/>
					</g>
					<g>
						<path class="st5" d="M81.1,220.5c1.2,0.2,2.8,0.3,3.9,0.1l-1.5,1.3l-0.4,2C82.7,222.8,81.9,221.4,81.1,220.5z"/>
					</g>
				</g>
			</g>
		</g>
	</g>
</g>
</svg>
